<svg xmlns="http://www.w3.org/2000/svg" xmlns:xlink="http://www.w3.org/1999/xlink" width="500" zoomAndPan="magnify" viewBox="0 0 375 374.999991" height="500" preserveAspectRatio="xMidYMid meet" version="1.0"><defs><clipPath id="27df44f621"><path d="M 37.5 111 L 342.75 111 L 342.75 281.933594 L 37.5 281.933594 Z M 37.5 111 " clip-rule="nonzero"/></clipPath><clipPath id="402fdc5f05"><path d="M 60 96.683594 L 148 96.683594 L 148 184 L 60 184 Z M 60 96.683594 " clip-rule="nonzero"/></clipPath><clipPath id="3d394d077d"><path d="M 238 96.683594 L 325 96.683594 L 325 184 L 238 184 Z M 238 96.683594 " clip-rule="nonzero"/></clipPath></defs><g clip-path="url(#27df44f621)"><path fill="#7ed957" d="M 342.925781 196.667969 C 342.925781 198.054688 342.863281 199.445312 342.742188 200.828125 C 342.621094 202.214844 342.433594 203.601562 342.191406 204.980469 C 341.945312 206.363281 341.640625 207.738281 341.273438 209.113281 C 340.90625 210.484375 340.480469 211.851562 339.992188 213.214844 C 339.503906 214.574219 338.957031 215.929688 338.347656 217.277344 C 337.742188 218.621094 337.074219 219.960938 336.351562 221.289062 C 335.625 222.617188 334.839844 223.933594 334 225.238281 C 333.15625 226.546875 332.257812 227.839844 331.300781 229.125 C 330.34375 230.40625 329.332031 231.675781 328.261719 232.929688 C 327.195312 234.183594 326.070312 235.421875 324.894531 236.648438 C 323.714844 237.871094 322.484375 239.078125 321.199219 240.269531 C 319.914062 241.460938 318.578125 242.632812 317.1875 243.785156 C 315.800781 244.941406 314.363281 246.074219 312.871094 247.191406 C 311.382812 248.304688 309.847656 249.398438 308.261719 250.472656 C 306.675781 251.542969 305.042969 252.59375 303.367188 253.625 C 301.6875 254.652344 299.964844 255.65625 298.195312 256.636719 C 296.429688 257.621094 294.621094 258.578125 292.769531 259.507812 C 290.917969 260.441406 289.023438 261.347656 287.09375 262.226562 C 285.160156 263.109375 283.191406 263.960938 281.183594 264.789062 C 279.175781 265.617188 277.132812 266.414062 275.054688 267.1875 C 272.976562 267.957031 270.867188 268.699219 268.722656 269.414062 C 266.578125 270.125 264.40625 270.808594 262.203125 271.464844 C 259.996094 272.117188 257.765625 272.742188 255.507812 273.335938 C 253.246094 273.929688 250.960938 274.492188 248.652344 275.023438 C 246.34375 275.554688 244.011719 276.054688 241.660156 276.519531 C 239.308594 276.988281 236.933594 277.425781 234.542969 277.828125 C 232.152344 278.230469 229.742188 278.601562 227.320312 278.9375 C 224.894531 279.273438 222.457031 279.578125 220.003906 279.847656 C 217.554688 280.121094 215.09375 280.355469 212.621094 280.5625 C 210.148438 280.765625 207.667969 280.933594 205.179688 281.070312 C 202.695312 281.207031 200.203125 281.308594 197.707031 281.375 C 195.210938 281.445312 192.710938 281.480469 190.210938 281.480469 C 187.714844 281.480469 185.214844 281.445312 182.71875 281.375 C 180.222656 281.308594 177.730469 281.207031 175.246094 281.070312 C 172.757812 280.933594 170.277344 280.765625 167.804688 280.5625 C 165.332031 280.355469 162.871094 280.121094 160.421875 279.847656 C 157.96875 279.578125 155.53125 279.273438 153.105469 278.9375 C 150.683594 278.601562 148.273438 278.230469 145.882812 277.828125 C 143.492188 277.425781 141.117188 276.988281 138.765625 276.519531 C 136.414062 276.054688 134.082031 275.554688 131.773438 275.023438 C 129.464844 274.492188 127.179688 273.929688 124.917969 273.335938 C 122.660156 272.742188 120.429688 272.117188 118.222656 271.464844 C 116.019531 270.808594 113.847656 270.125 111.703125 269.414062 C 109.558594 268.699219 107.449219 267.957031 105.371094 267.1875 C 103.292969 266.414062 101.25 265.617188 99.242188 264.789062 C 97.234375 263.960938 95.265625 263.109375 93.332031 262.226562 C 91.402344 261.347656 89.507812 260.441406 87.65625 259.507812 C 85.804688 258.578125 83.996094 257.621094 82.230469 256.636719 C 80.460938 255.65625 78.738281 254.652344 77.058594 253.625 C 75.382812 252.59375 73.75 251.542969 72.164062 250.472656 C 70.578125 249.398438 69.042969 248.304688 67.554688 247.191406 C 66.0625 246.074219 64.625 244.941406 63.238281 243.785156 C 61.847656 242.632812 60.511719 241.460938 59.226562 240.269531 C 57.941406 239.078125 56.710938 237.871094 55.53125 236.648438 C 54.355469 235.421875 53.230469 234.183594 52.160156 232.929688 C 51.09375 231.675781 50.082031 230.40625 49.125 229.125 C 48.167969 227.839844 47.269531 226.546875 46.425781 225.238281 C 45.585938 223.933594 44.800781 222.617188 44.074219 221.289062 C 43.351562 219.960938 42.683594 218.621094 42.078125 217.277344 C 41.46875 215.929688 40.921875 214.574219 40.433594 213.214844 C 39.945312 211.851562 39.519531 210.484375 39.152344 209.113281 C 38.785156 207.738281 38.480469 206.363281 38.234375 204.980469 C 37.992188 203.601562 37.804688 202.214844 37.683594 200.828125 C 37.5625 199.445312 37.5 198.054688 37.5 196.667969 C 37.5 195.28125 37.5625 193.894531 37.683594 192.507812 C 37.804688 191.121094 37.992188 189.738281 38.234375 188.355469 C 38.480469 186.972656 38.785156 185.597656 39.152344 184.222656 C 39.519531 182.851562 39.945312 181.484375 40.433594 180.121094 C 40.921875 178.761719 41.46875 177.40625 42.078125 176.0625 C 42.683594 174.714844 43.351562 173.378906 44.074219 172.050781 C 44.800781 170.722656 45.585938 169.402344 46.425781 168.097656 C 47.269531 166.789062 48.167969 165.496094 49.125 164.210938 C 50.082031 162.929688 51.09375 161.660156 52.160156 160.40625 C 53.230469 159.152344 54.355469 157.914062 55.53125 156.6875 C 56.710938 155.464844 57.941406 154.257812 59.226562 153.066406 C 60.511719 151.875 61.847656 150.703125 63.238281 149.550781 C 64.625 148.394531 66.0625 147.261719 67.554688 146.148438 C 69.042969 145.03125 70.578125 143.9375 72.164062 142.863281 C 73.75 141.792969 75.382812 140.742188 77.058594 139.710938 C 78.738281 138.683594 80.460938 137.679688 82.230469 136.699219 C 83.996094 135.714844 85.804688 134.761719 87.65625 133.828125 C 89.507812 132.894531 91.402344 131.988281 93.332031 131.109375 C 95.265625 130.226562 97.234375 129.375 99.242188 128.546875 C 101.25 127.722656 103.292969 126.921875 105.371094 126.152344 C 107.449219 125.378906 109.558594 124.636719 111.703125 123.921875 C 113.847656 123.210938 116.019531 122.527344 118.222656 121.871094 C 120.429688 121.21875 122.660156 120.59375 124.917969 120 C 127.179688 119.40625 129.464844 118.84375 131.773438 118.3125 C 134.082031 117.78125 136.414062 117.28125 138.765625 116.816406 C 141.117188 116.347656 143.492188 115.914062 145.882812 115.507812 C 148.273438 115.105469 150.683594 114.738281 153.105469 114.398438 C 155.53125 114.0625 157.96875 113.757812 160.421875 113.488281 C 162.871094 113.214844 165.332031 112.980469 167.804688 112.777344 C 170.277344 112.570312 172.757812 112.402344 175.246094 112.265625 C 177.730469 112.128906 180.222656 112.027344 182.71875 111.960938 C 185.214844 111.890625 187.714844 111.859375 190.210938 111.859375 C 192.710938 111.859375 195.210938 111.890625 197.707031 111.960938 C 200.203125 112.027344 202.695312 112.128906 205.179688 112.265625 C 207.667969 112.402344 210.148438 112.570312 212.621094 112.777344 C 215.09375 112.980469 217.554688 113.214844 220.003906 113.488281 C 222.457031 113.757812 224.894531 114.0625 227.320312 114.398438 C 229.742188 114.738281 232.152344 115.105469 234.542969 115.507812 C 236.933594 115.914062 239.308594 116.347656 241.660156 116.816406 C 244.011719 117.28125 246.34375 117.78125 248.652344 118.3125 C 250.960938 118.84375 253.246094 119.40625 255.507812 120 C 257.765625 120.59375 259.996094 121.21875 262.203125 121.871094 C 264.40625 122.527344 266.578125 123.210938 268.722656 123.921875 C 270.867188 124.636719 272.976562 125.378906 275.054688 126.152344 C 277.132812 126.921875 279.175781 127.722656 281.183594 128.546875 C 283.191406 129.375 285.160156 130.226562 287.09375 131.109375 C 289.023438 131.988281 290.917969 132.894531 292.769531 133.828125 C 294.621094 134.761719 296.429688 135.714844 298.195312 136.699219 C 299.964844 137.679688 301.6875 138.683594 303.367188 139.710938 C 305.042969 140.742188 306.675781 141.792969 308.261719 142.863281 C 309.847656 143.9375 311.382812 145.03125 312.871094 146.148438 C 314.363281 147.261719 315.800781 148.394531 317.1875 149.550781 C 318.578125 150.703125 319.914062 151.875 321.199219 153.066406 C 322.484375 154.257812 323.714844 155.464844 324.894531 156.6875 C 326.070312 157.914062 327.195312 159.152344 328.261719 160.40625 C 329.332031 161.660156 330.34375 162.929688 331.300781 164.210938 C 332.257812 165.496094 333.15625 166.789062 334 168.097656 C 334.839844 169.402344 335.625 170.722656 336.351562 172.050781 C 337.074219 173.378906 337.742188 174.714844 338.347656 176.0625 C 338.957031 177.40625 339.503906 178.761719 339.992188 180.121094 C 340.480469 181.484375 340.90625 182.851562 341.273438 184.222656 C 341.640625 185.597656 341.945312 186.972656 342.191406 188.355469 C 342.433594 189.738281 342.621094 191.121094 342.742188 192.507812 C 342.863281 193.894531 342.925781 195.28125 342.925781 196.667969 Z M 342.925781 196.667969 " fill-opacity="1" fill-rule="nonzero"/></g><g clip-path="url(#402fdc5f05)"><path fill="#7ed957" d="M 147.253906 140.128906 C 147.253906 141.542969 147.183594 142.957031 147.046875 144.363281 C 146.90625 145.773438 146.699219 147.171875 146.421875 148.5625 C 146.148438 149.949219 145.804688 151.324219 145.390625 152.675781 C 144.980469 154.03125 144.503906 155.363281 143.960938 156.671875 C 143.421875 157.980469 142.816406 159.257812 142.148438 160.507812 C 141.480469 161.757812 140.753906 162.96875 139.96875 164.148438 C 139.179688 165.324219 138.339844 166.460938 137.441406 167.554688 C 136.542969 168.648438 135.589844 169.699219 134.589844 170.699219 C 133.589844 171.699219 132.542969 172.648438 131.445312 173.546875 C 130.351562 174.445312 129.214844 175.289062 128.039062 176.074219 C 126.863281 176.863281 125.648438 177.589844 124.398438 178.257812 C 123.152344 178.925781 121.871094 179.53125 120.5625 180.070312 C 119.253906 180.613281 117.925781 181.089844 116.570312 181.5 C 115.214844 181.910156 113.84375 182.253906 112.453125 182.53125 C 111.0625 182.808594 109.664062 183.015625 108.257812 183.15625 C 106.847656 183.292969 105.433594 183.363281 104.019531 183.363281 C 102.601562 183.363281 101.191406 183.292969 99.78125 183.15625 C 98.371094 183.015625 96.972656 182.808594 95.582031 182.53125 C 94.195312 182.253906 92.824219 181.910156 91.46875 181.5 C 90.113281 181.089844 88.78125 180.613281 87.472656 180.070312 C 86.164062 179.53125 84.886719 178.925781 83.636719 178.257812 C 82.386719 177.589844 81.175781 176.863281 80 176.074219 C 78.820312 175.289062 77.683594 174.445312 76.589844 173.546875 C 75.496094 172.648438 74.449219 171.699219 73.445312 170.699219 C 72.445312 169.699219 71.496094 168.648438 70.597656 167.554688 C 69.699219 166.460938 68.855469 165.324219 68.070312 164.148438 C 67.28125 162.96875 66.554688 161.757812 65.886719 160.507812 C 65.21875 159.257812 64.617188 157.980469 64.074219 156.671875 C 63.53125 155.363281 63.054688 154.03125 62.644531 152.675781 C 62.234375 151.324219 61.890625 149.949219 61.613281 148.5625 C 61.335938 147.171875 61.128906 145.773438 60.992188 144.363281 C 60.851562 142.957031 60.78125 141.542969 60.78125 140.128906 C 60.78125 138.710938 60.851562 137.296875 60.992188 135.890625 C 61.128906 134.480469 61.335938 133.082031 61.613281 131.691406 C 61.890625 130.304688 62.234375 128.929688 62.644531 127.578125 C 63.054688 126.222656 63.53125 124.890625 64.074219 123.582031 C 64.617188 122.273438 65.21875 120.996094 65.886719 119.746094 C 66.554688 118.496094 67.28125 117.285156 68.070312 116.105469 C 68.855469 114.929688 69.699219 113.792969 70.597656 112.699219 C 71.496094 111.605469 72.445312 110.554688 73.445312 109.554688 C 74.449219 108.554688 75.496094 107.605469 76.589844 106.707031 C 77.683594 105.808594 78.820312 104.964844 80 104.179688 C 81.175781 103.390625 82.386719 102.664062 83.636719 101.996094 C 84.886719 101.328125 86.164062 100.726562 87.472656 100.183594 C 88.78125 99.640625 90.113281 99.164062 91.46875 98.753906 C 92.824219 98.34375 94.195312 98 95.582031 97.722656 C 96.972656 97.445312 98.371094 97.238281 99.78125 97.101562 C 101.191406 96.960938 102.601562 96.890625 104.019531 96.890625 C 105.433594 96.890625 106.847656 96.960938 108.257812 97.101562 C 109.664062 97.238281 111.0625 97.445312 112.453125 97.722656 C 113.84375 98 115.214844 98.34375 116.570312 98.753906 C 117.925781 99.164062 119.253906 99.640625 120.5625 100.183594 C 121.871094 100.726562 123.152344 101.328125 124.398438 101.996094 C 125.648438 102.664062 126.859375 103.390625 128.039062 104.179688 C 129.214844 104.964844 130.351562 105.808594 131.445312 106.707031 C 132.542969 107.605469 133.589844 108.554688 134.589844 109.554688 C 135.589844 110.554688 136.542969 111.605469 137.441406 112.699219 C 138.339844 113.792969 139.179688 114.929688 139.96875 116.105469 C 140.753906 117.285156 141.480469 118.496094 142.148438 119.746094 C 142.816406 120.996094 143.421875 122.273438 143.960938 123.582031 C 144.503906 124.890625 144.980469 126.222656 145.390625 127.578125 C 145.804688 128.929688 146.148438 130.304688 146.421875 131.691406 C 146.699219 133.082031 146.90625 134.480469 147.046875 135.890625 C 147.183594 137.296875 147.253906 138.710938 147.253906 140.128906 Z M 147.253906 140.128906 " fill-opacity="1" fill-rule="nonzero"/></g><g clip-path="url(#3d394d077d)"><path fill="#7ed957" d="M 324.632812 140.128906 C 324.632812 141.542969 324.5625 142.957031 324.425781 144.363281 C 324.285156 145.773438 324.078125 147.171875 323.800781 148.5625 C 323.527344 149.949219 323.183594 151.324219 322.773438 152.675781 C 322.359375 154.03125 321.882812 155.363281 321.34375 156.671875 C 320.800781 157.980469 320.195312 159.257812 319.527344 160.507812 C 318.859375 161.757812 318.132812 162.96875 317.347656 164.148438 C 316.558594 165.324219 315.71875 166.460938 314.820312 167.554688 C 313.921875 168.648438 312.972656 169.699219 311.96875 170.699219 C 310.96875 171.699219 309.921875 172.648438 308.828125 173.546875 C 307.730469 174.445312 306.59375 175.289062 305.417969 176.074219 C 304.242188 176.863281 303.027344 177.589844 301.777344 178.257812 C 300.53125 178.925781 299.25 179.53125 297.945312 180.070312 C 296.636719 180.613281 295.304688 181.089844 293.949219 181.5 C 292.59375 181.910156 291.222656 182.253906 289.832031 182.53125 C 288.445312 182.808594 287.046875 183.015625 285.636719 183.15625 C 284.226562 183.292969 282.8125 183.363281 281.398438 183.363281 C 279.980469 183.363281 278.570312 183.292969 277.160156 183.15625 C 275.75 183.015625 274.351562 182.808594 272.964844 182.53125 C 271.574219 182.253906 270.203125 181.910156 268.847656 181.5 C 267.492188 181.089844 266.160156 180.613281 264.851562 180.070312 C 263.542969 179.53125 262.265625 178.925781 261.015625 178.257812 C 259.769531 177.589844 258.554688 176.863281 257.378906 176.074219 C 256.199219 175.289062 255.0625 174.445312 253.96875 173.546875 C 252.875 172.648438 251.828125 171.699219 250.824219 170.699219 C 249.824219 169.699219 248.875 168.648438 247.976562 167.554688 C 247.078125 166.460938 246.234375 165.324219 245.449219 164.148438 C 244.664062 162.96875 243.933594 161.757812 243.269531 160.507812 C 242.601562 159.257812 241.996094 157.980469 241.453125 156.671875 C 240.910156 155.363281 240.433594 154.03125 240.023438 152.675781 C 239.613281 151.324219 239.269531 149.949219 238.992188 148.5625 C 238.71875 147.171875 238.507812 145.773438 238.371094 144.363281 C 238.230469 142.957031 238.164062 141.542969 238.164062 140.128906 C 238.164062 138.710938 238.230469 137.296875 238.371094 135.890625 C 238.507812 134.480469 238.71875 133.082031 238.992188 131.691406 C 239.269531 130.304688 239.613281 128.929688 240.023438 127.578125 C 240.433594 126.222656 240.910156 124.890625 241.453125 123.582031 C 241.996094 122.273438 242.601562 120.996094 243.269531 119.746094 C 243.933594 118.496094 244.664062 117.285156 245.449219 116.105469 C 246.234375 114.929688 247.078125 113.792969 247.976562 112.699219 C 248.875 111.605469 249.824219 110.554688 250.824219 109.554688 C 251.828125 108.554688 252.875 107.605469 253.96875 106.707031 C 255.0625 105.808594 256.199219 104.964844 257.378906 104.179688 C 258.554688 103.390625 259.769531 102.664062 261.015625 101.996094 C 262.265625 101.328125 263.542969 100.726562 264.851562 100.183594 C 266.160156 99.640625 267.492188 99.164062 268.847656 98.753906 C 270.203125 98.34375 271.574219 98 272.964844 97.722656 C 274.351562 97.445312 275.75 97.238281 277.160156 97.101562 C 278.570312 96.960938 279.980469 96.890625 281.398438 96.890625 C 282.8125 96.890625 284.226562 96.960938 285.636719 97.101562 C 287.046875 97.238281 288.445312 97.445312 289.832031 97.722656 C 291.222656 98 292.59375 98.34375 293.949219 98.753906 C 295.304688 99.164062 296.636719 99.640625 297.945312 100.183594 C 299.25 100.726562 300.53125 101.328125 301.777344 101.996094 C 303.027344 102.664062 304.242188 103.390625 305.417969 104.179688 C 306.59375 104.964844 307.730469 105.808594 308.828125 106.707031 C 309.921875 107.605469 310.96875 108.554688 311.96875 109.554688 C 312.972656 110.554688 313.921875 111.605469 314.820312 112.699219 C 315.71875 113.792969 316.558594 114.929688 317.347656 116.105469 C 318.132812 117.285156 318.859375 118.496094 319.527344 119.746094 C 320.195312 120.996094 320.800781 122.273438 321.34375 123.582031 C 321.882812 124.890625 322.359375 126.222656 322.773438 127.578125 C 323.183594 128.929688 323.527344 130.304688 323.800781 131.691406 C 324.078125 133.082031 324.285156 134.480469 324.425781 135.890625 C 324.5625 137.296875 324.632812 138.710938 324.632812 140.128906 Z M 324.632812 140.128906 " fill-opacity="1" fill-rule="nonzero"/></g><path fill="#ffffff" d="M 118.429688 142.898438 C 118.429688 143.84375 118.335938 144.78125 118.152344 145.710938 C 117.96875 146.636719 117.695312 147.539062 117.332031 148.414062 C 116.96875 149.289062 116.527344 150.117188 116 150.90625 C 115.476562 151.691406 114.878906 152.417969 114.207031 153.089844 C 113.539062 153.757812 112.8125 154.355469 112.023438 154.882812 C 111.238281 155.40625 110.40625 155.851562 109.535156 156.214844 C 108.660156 156.574219 107.757812 156.847656 106.828125 157.03125 C 105.902344 157.21875 104.964844 157.308594 104.019531 157.308594 C 103.070312 157.308594 102.136719 157.21875 101.207031 157.03125 C 100.277344 156.847656 99.378906 156.574219 98.503906 156.214844 C 97.628906 155.851562 96.796875 155.40625 96.011719 154.882812 C 95.226562 154.355469 94.496094 153.757812 93.828125 153.089844 C 93.160156 152.417969 92.5625 151.691406 92.035156 150.90625 C 91.511719 150.117188 91.066406 149.289062 90.703125 148.414062 C 90.34375 147.539062 90.070312 146.636719 89.882812 145.710938 C 89.699219 144.78125 89.605469 143.84375 89.605469 142.898438 C 89.605469 141.953125 89.699219 141.015625 89.882812 140.085938 C 90.070312 139.160156 90.34375 138.257812 90.703125 137.382812 C 91.066406 136.507812 91.511719 135.679688 92.035156 134.890625 C 92.5625 134.105469 93.160156 133.378906 93.828125 132.707031 C 94.496094 132.039062 95.226562 131.441406 96.011719 130.917969 C 96.796875 130.390625 97.628906 129.945312 98.503906 129.585938 C 99.378906 129.222656 100.277344 128.949219 101.207031 128.765625 C 102.136719 128.578125 103.070312 128.488281 104.019531 128.488281 C 104.964844 128.488281 105.902344 128.578125 106.828125 128.765625 C 107.757812 128.949219 108.660156 129.222656 109.535156 129.585938 C 110.40625 129.945312 111.238281 130.390625 112.023438 130.917969 C 112.8125 131.441406 113.539062 132.039062 114.207031 132.707031 C 114.878906 133.378906 115.476562 134.105469 116 134.890625 C 116.527344 135.679688 116.96875 136.507812 117.332031 137.382812 C 117.695312 138.257812 117.96875 139.160156 118.152344 140.085938 C 118.335938 141.015625 118.429688 141.953125 118.429688 142.898438 Z M 118.429688 142.898438 " fill-opacity="1" fill-rule="nonzero"/><path fill="#69545b" d="M 107.34375 142.898438 C 107.34375 143.371094 107.296875 143.839844 107.203125 144.304688 C 107.113281 144.769531 106.976562 145.21875 106.792969 145.65625 C 106.613281 146.09375 106.390625 146.507812 106.128906 146.902344 C 105.867188 147.296875 105.566406 147.660156 105.230469 147.992188 C 104.898438 148.328125 104.535156 148.628906 104.140625 148.890625 C 103.746094 149.152344 103.332031 149.375 102.894531 149.554688 C 102.457031 149.738281 102.007812 149.875 101.542969 149.964844 C 101.078125 150.058594 100.609375 150.105469 100.136719 150.105469 C 99.664062 150.105469 99.195312 150.058594 98.730469 149.964844 C 98.265625 149.875 97.816406 149.738281 97.378906 149.554688 C 96.941406 149.375 96.527344 149.152344 96.132812 148.890625 C 95.742188 148.628906 95.375 148.328125 95.042969 147.992188 C 94.707031 147.660156 94.410156 147.296875 94.144531 146.902344 C 93.882812 146.507812 93.660156 146.09375 93.480469 145.65625 C 93.300781 145.21875 93.164062 144.769531 93.070312 144.304688 C 92.976562 143.839844 92.933594 143.371094 92.933594 142.898438 C 92.933594 142.425781 92.976562 141.957031 93.070312 141.492188 C 93.164062 141.027344 93.300781 140.578125 93.480469 140.140625 C 93.660156 139.703125 93.882812 139.289062 94.144531 138.894531 C 94.410156 138.503906 94.707031 138.136719 95.042969 137.804688 C 95.375 137.46875 95.742188 137.171875 96.132812 136.90625 C 96.527344 136.644531 96.941406 136.421875 97.378906 136.242188 C 97.816406 136.0625 98.265625 135.925781 98.730469 135.832031 C 99.195312 135.738281 99.664062 135.691406 100.136719 135.691406 C 100.609375 135.691406 101.078125 135.738281 101.542969 135.832031 C 102.007812 135.925781 102.457031 136.0625 102.894531 136.242188 C 103.332031 136.421875 103.746094 136.644531 104.140625 136.90625 C 104.535156 137.171875 104.898438 137.46875 105.230469 137.804688 C 105.566406 138.136719 105.867188 138.503906 106.128906 138.894531 C 106.390625 139.289062 106.613281 139.703125 106.792969 140.140625 C 106.976562 140.578125 107.113281 141.027344 107.203125 141.492188 C 107.296875 141.957031 107.34375 142.425781 107.34375 142.898438 Z M 107.34375 142.898438 " fill-opacity="1" fill-rule="nonzero"/><path fill="#ffffff" d="M 302.460938 140.128906 C 302.460938 141.074219 302.367188 142.011719 302.183594 142.9375 C 302 143.867188 301.726562 144.769531 301.363281 145.640625 C 301 146.515625 300.558594 147.347656 300.03125 148.132812 C 299.503906 148.921875 298.90625 149.648438 298.238281 150.316406 C 297.570312 150.988281 296.84375 151.582031 296.054688 152.109375 C 295.269531 152.636719 294.4375 153.078125 293.5625 153.441406 C 292.691406 153.804688 291.789062 154.078125 290.859375 154.261719 C 289.933594 154.445312 288.996094 154.539062 288.050781 154.539062 C 287.101562 154.539062 286.164062 154.445312 285.238281 154.261719 C 284.308594 154.078125 283.40625 153.804688 282.535156 153.441406 C 281.660156 153.078125 280.828125 152.636719 280.042969 152.109375 C 279.253906 151.582031 278.527344 150.988281 277.859375 150.316406 C 277.191406 149.648438 276.59375 148.921875 276.066406 148.132812 C 275.539062 147.347656 275.097656 146.515625 274.734375 145.640625 C 274.371094 144.769531 274.097656 143.867188 273.914062 142.9375 C 273.730469 142.011719 273.636719 141.074219 273.636719 140.128906 C 273.636719 139.179688 273.730469 138.242188 273.914062 137.316406 C 274.097656 136.386719 274.371094 135.488281 274.734375 134.613281 C 275.097656 133.738281 275.539062 132.90625 276.066406 132.121094 C 276.59375 131.332031 277.191406 130.605469 277.859375 129.9375 C 278.527344 129.269531 279.253906 128.671875 280.042969 128.144531 C 280.828125 127.617188 281.660156 127.175781 282.535156 126.8125 C 283.40625 126.449219 284.308594 126.175781 285.238281 125.992188 C 286.164062 125.808594 287.101562 125.714844 288.050781 125.714844 C 288.996094 125.714844 289.933594 125.808594 290.859375 125.992188 C 291.789062 126.175781 292.691406 126.449219 293.5625 126.8125 C 294.4375 127.175781 295.269531 127.617188 296.054688 128.144531 C 296.84375 128.671875 297.570312 129.269531 298.238281 129.9375 C 298.90625 130.605469 299.503906 131.332031 300.03125 132.121094 C 300.558594 132.90625 301 133.738281 301.363281 134.613281 C 301.726562 135.488281 302 136.386719 302.183594 137.316406 C 302.367188 138.242188 302.460938 139.179688 302.460938 140.128906 Z M 302.460938 140.128906 " fill-opacity="1" fill-rule="nonzero"/><path fill="#69545b" d="M 299.136719 140.128906 C 299.136719 140.601562 299.089844 141.070312 298.996094 141.53125 C 298.90625 141.996094 298.769531 142.449219 298.585938 142.882812 C 298.40625 143.320312 298.183594 143.738281 297.921875 144.128906 C 297.660156 144.523438 297.359375 144.886719 297.023438 145.222656 C 296.691406 145.558594 296.328125 145.855469 295.933594 146.117188 C 295.539062 146.382812 295.125 146.601562 294.6875 146.785156 C 294.25 146.964844 293.800781 147.101562 293.335938 147.195312 C 292.871094 147.285156 292.402344 147.332031 291.929688 147.332031 C 291.457031 147.332031 290.988281 147.285156 290.523438 147.195312 C 290.058594 147.101562 289.609375 146.964844 289.171875 146.785156 C 288.734375 146.601562 288.320312 146.382812 287.925781 146.117188 C 287.535156 145.855469 287.167969 145.558594 286.835938 145.222656 C 286.5 144.886719 286.203125 144.523438 285.9375 144.128906 C 285.675781 143.738281 285.453125 143.320312 285.273438 142.882812 C 285.09375 142.449219 284.957031 141.996094 284.863281 141.53125 C 284.769531 141.070312 284.722656 140.601562 284.722656 140.128906 C 284.722656 139.652344 284.769531 139.183594 284.863281 138.722656 C 284.957031 138.257812 285.09375 137.808594 285.273438 137.371094 C 285.453125 136.933594 285.675781 136.515625 285.9375 136.125 C 286.203125 135.730469 286.5 135.367188 286.835938 135.03125 C 287.167969 134.699219 287.535156 134.398438 287.925781 134.136719 C 288.320312 133.871094 288.734375 133.652344 289.171875 133.46875 C 289.609375 133.289062 290.058594 133.152344 290.523438 133.058594 C 290.988281 132.96875 291.457031 132.921875 291.929688 132.921875 C 292.402344 132.921875 292.871094 132.96875 293.335938 133.058594 C 293.800781 133.152344 294.25 133.289062 294.6875 133.46875 C 295.125 133.652344 295.539062 133.871094 295.933594 134.136719 C 296.328125 134.398438 296.691406 134.699219 297.023438 135.03125 C 297.359375 135.367188 297.660156 135.730469 297.921875 136.125 C 298.183594 136.515625 298.40625 136.933594 298.585938 137.371094 C 298.769531 137.808594 298.90625 138.257812 298.996094 138.722656 C 299.089844 139.183594 299.136719 139.652344 299.136719 140.128906 Z M 299.136719 140.128906 " fill-opacity="1" fill-rule="nonzero"/><path fill="#eeac77" d="M 143.929688 198.886719 C 143.929688 199.558594 143.882812 200.226562 143.785156 200.894531 C 143.6875 201.5625 143.546875 202.226562 143.355469 202.886719 C 143.164062 203.546875 142.925781 204.195312 142.640625 204.839844 C 142.355469 205.480469 142.027344 206.113281 141.652344 206.734375 C 141.277344 207.355469 140.855469 207.960938 140.394531 208.554688 C 139.933594 209.144531 139.429688 209.722656 138.882812 210.28125 C 138.339844 210.839844 137.757812 211.375 137.136719 211.894531 C 136.511719 212.414062 135.855469 212.914062 135.160156 213.386719 C 134.46875 213.863281 133.742188 214.3125 132.984375 214.738281 C 132.226562 215.164062 131.441406 215.566406 130.625 215.9375 C 129.8125 216.3125 128.972656 216.65625 128.105469 216.972656 C 127.242188 217.289062 126.355469 217.578125 125.449219 217.832031 C 124.546875 218.089844 123.625 218.316406 122.683594 218.511719 C 121.746094 218.707031 120.796875 218.871094 119.835938 219 C 118.875 219.132812 117.90625 219.230469 116.929688 219.296875 C 115.953125 219.363281 114.976562 219.394531 113.996094 219.394531 C 113.015625 219.394531 112.039062 219.363281 111.0625 219.296875 C 110.085938 219.230469 109.117188 219.132812 108.15625 219 C 107.195312 218.871094 106.246094 218.707031 105.304688 218.511719 C 104.367188 218.316406 103.445312 218.089844 102.539062 217.832031 C 101.632812 217.578125 100.75 217.289062 99.886719 216.972656 C 99.019531 216.65625 98.179688 216.3125 97.367188 215.9375 C 96.550781 215.566406 95.765625 215.164062 95.003906 214.738281 C 94.246094 214.3125 93.523438 213.863281 92.828125 213.386719 C 92.136719 212.914062 91.476562 212.414062 90.855469 211.894531 C 90.234375 211.375 89.652344 210.839844 89.105469 210.28125 C 88.5625 209.722656 88.058594 209.144531 87.597656 208.554688 C 87.132812 207.960938 86.714844 207.355469 86.339844 206.734375 C 85.964844 206.113281 85.636719 205.480469 85.351562 204.839844 C 85.066406 204.195312 84.828125 203.546875 84.636719 202.886719 C 84.445312 202.226562 84.300781 201.5625 84.207031 200.894531 C 84.109375 200.226562 84.0625 199.558594 84.0625 198.886719 C 84.0625 198.214844 84.109375 197.542969 84.207031 196.875 C 84.300781 196.207031 84.445312 195.542969 84.636719 194.882812 C 84.828125 194.226562 85.066406 193.574219 85.351562 192.933594 C 85.636719 192.289062 85.964844 191.65625 86.339844 191.035156 C 86.714844 190.417969 87.132812 189.808594 87.597656 189.21875 C 88.058594 188.625 88.5625 188.050781 89.105469 187.492188 C 89.652344 186.933594 90.234375 186.394531 90.855469 185.875 C 91.476562 185.355469 92.136719 184.859375 92.828125 184.382812 C 93.523438 183.90625 94.246094 183.457031 95.003906 183.03125 C 95.765625 182.605469 96.550781 182.207031 97.367188 181.832031 C 98.179688 181.460938 99.019531 181.113281 99.886719 180.796875 C 100.75 180.480469 101.632812 180.195312 102.539062 179.9375 C 103.445312 179.679688 104.367188 179.453125 105.304688 179.257812 C 106.246094 179.0625 107.195312 178.902344 108.15625 178.769531 C 109.117188 178.640625 110.085938 178.539062 111.0625 178.476562 C 112.039062 178.410156 113.015625 178.375 113.996094 178.375 C 114.976562 178.375 115.953125 178.410156 116.929688 178.476562 C 117.90625 178.539062 118.875 178.640625 119.835938 178.769531 C 120.796875 178.902344 121.746094 179.0625 122.683594 179.257812 C 123.625 179.453125 124.546875 179.679688 125.449219 179.9375 C 126.355469 180.195312 127.242188 180.480469 128.105469 180.796875 C 128.972656 181.113281 129.8125 181.460938 130.625 181.832031 C 131.441406 182.207031 132.226562 182.605469 132.984375 183.03125 C 133.742188 183.457031 134.46875 183.90625 135.160156 184.382812 C 135.855469 184.859375 136.511719 185.355469 137.136719 185.875 C 137.757812 186.394531 138.339844 186.933594 138.882812 187.492188 C 139.429688 188.050781 139.933594 188.625 140.394531 189.21875 C 140.855469 189.808594 141.277344 190.417969 141.652344 191.035156 C 142.027344 191.65625 142.355469 192.289062 142.640625 192.933594 C 142.925781 193.574219 143.164062 194.226562 143.355469 194.882812 C 143.546875 195.542969 143.6875 196.207031 143.785156 196.875 C 143.882812 197.542969 143.929688 198.214844 143.929688 198.886719 Z M 143.929688 198.886719 " fill-opacity="1" fill-rule="nonzero"/><path fill="#eeac77" d="M 295.8125 198.886719 C 295.8125 199.558594 295.761719 200.226562 295.667969 200.894531 C 295.570312 201.5625 295.425781 202.226562 295.234375 202.886719 C 295.042969 203.546875 294.808594 204.195312 294.523438 204.839844 C 294.238281 205.480469 293.90625 206.113281 293.53125 206.734375 C 293.15625 207.355469 292.738281 207.960938 292.277344 208.554688 C 291.816406 209.144531 291.3125 209.722656 290.765625 210.28125 C 290.222656 210.839844 289.636719 211.375 289.015625 211.894531 C 288.394531 212.414062 287.738281 212.914062 287.042969 213.386719 C 286.351562 213.863281 285.625 214.3125 284.867188 214.738281 C 284.109375 215.164062 283.324219 215.566406 282.507812 215.9375 C 281.691406 216.3125 280.851562 216.65625 279.988281 216.972656 C 279.125 217.289062 278.238281 217.578125 277.332031 217.832031 C 276.425781 218.089844 275.503906 218.316406 274.566406 218.511719 C 273.628906 218.707031 272.679688 218.871094 271.71875 219 C 270.753906 219.132812 269.789062 219.230469 268.8125 219.296875 C 267.835938 219.363281 266.859375 219.394531 265.878906 219.394531 C 264.898438 219.394531 263.917969 219.363281 262.945312 219.296875 C 261.96875 219.230469 261 219.132812 260.039062 219 C 259.074219 218.871094 258.125 218.707031 257.1875 218.511719 C 256.25 218.316406 255.328125 218.089844 254.421875 217.832031 C 253.515625 217.578125 252.632812 217.289062 251.765625 216.972656 C 250.902344 216.65625 250.0625 216.3125 249.246094 215.9375 C 248.433594 215.566406 247.644531 215.164062 246.886719 214.738281 C 246.128906 214.3125 245.402344 213.863281 244.710938 213.386719 C 244.019531 212.914062 243.359375 212.414062 242.738281 211.894531 C 242.117188 211.375 241.53125 210.839844 240.988281 210.28125 C 240.445312 209.722656 239.941406 209.144531 239.476562 208.554688 C 239.015625 207.960938 238.597656 207.355469 238.222656 206.734375 C 237.847656 206.113281 237.515625 205.480469 237.234375 204.839844 C 236.949219 204.195312 236.710938 203.546875 236.519531 202.886719 C 236.328125 202.226562 236.183594 201.5625 236.085938 200.894531 C 235.992188 200.226562 235.945312 199.558594 235.945312 198.886719 C 235.945312 198.214844 235.992188 197.542969 236.085938 196.875 C 236.183594 196.207031 236.328125 195.542969 236.519531 194.882812 C 236.710938 194.226562 236.949219 193.574219 237.234375 192.933594 C 237.515625 192.289062 237.847656 191.65625 238.222656 191.035156 C 238.597656 190.417969 239.015625 189.808594 239.476562 189.21875 C 239.941406 188.625 240.445312 188.050781 240.988281 187.492188 C 241.53125 186.933594 242.117188 186.394531 242.738281 185.875 C 243.359375 185.355469 244.019531 184.859375 244.710938 184.382812 C 245.402344 183.90625 246.128906 183.457031 246.886719 183.03125 C 247.644531 182.605469 248.433594 182.207031 249.246094 181.832031 C 250.0625 181.460938 250.902344 181.113281 251.765625 180.796875 C 252.632812 180.480469 253.515625 180.195312 254.421875 179.9375 C 255.328125 179.679688 256.25 179.453125 257.1875 179.257812 C 258.125 179.0625 259.074219 178.902344 260.039062 178.769531 C 261 178.640625 261.96875 178.539062 262.945312 178.476562 C 263.917969 178.410156 264.898438 178.375 265.878906 178.375 C 266.859375 178.375 267.835938 178.410156 268.8125 178.476562 C 269.789062 178.539062 270.753906 178.640625 271.71875 178.769531 C 272.679688 178.902344 273.628906 179.0625 274.566406 179.257812 C 275.503906 179.453125 276.425781 179.679688 277.332031 179.9375 C 278.238281 180.195312 279.125 180.480469 279.988281 180.796875 C 280.851562 181.113281 281.691406 181.460938 282.507812 181.832031 C 283.324219 182.207031 284.109375 182.605469 284.867188 183.03125 C 285.625 183.457031 286.351562 183.90625 287.042969 184.382812 C 287.738281 184.859375 288.394531 185.355469 289.015625 185.875 C 289.636719 186.394531 290.222656 186.933594 290.765625 187.492188 C 291.3125 188.050781 291.816406 188.625 292.277344 189.21875 C 292.738281 189.808594 293.15625 190.417969 293.53125 191.035156 C 293.90625 191.65625 294.238281 192.289062 294.523438 192.933594 C 294.808594 193.574219 295.042969 194.226562 295.234375 194.882812 C 295.425781 195.542969 295.570312 196.207031 295.667969 196.875 C 295.761719 197.542969 295.8125 198.214844 295.8125 198.886719 Z M 295.8125 198.886719 " fill-opacity="1" fill-rule="nonzero"/><path fill="#575d43" d="M 163.429688 162.480469 C 171.671875 166.921875 180.640625 170.078125 189.992188 171 C 198.570312 171.84375 207.308594 170.566406 215.171875 166.992188 C 219.464844 165.042969 223.421875 162.347656 226.773438 159.027344 C 228.296875 157.519531 225.945312 155.164062 224.421875 156.675781 C 218.8125 162.234375 211.46875 165.675781 203.75 167.148438 C 195.46875 168.726562 186.886719 167.824219 178.859375 165.398438 C 174.082031 163.957031 169.496094 161.972656 165.109375 159.609375 C 163.222656 158.59375 161.542969 161.464844 163.429688 162.480469 Z M 163.429688 162.480469 " fill-opacity="1" fill-rule="nonzero"/></svg>